<?xml version="1.0" encoding="UTF-8"?>
<!DOCTYPE svg PUBLIC "-//W3C//DTD SVG 1.1//EN" "http://www.w3.org/Graphics/SVG/1.1/DTD/svg11.dtd">
<svg version="1.1" xmlns="http://www.w3.org/2000/svg" xmlns:xlink="http://www.w3.org/1999/xlink" x="0" y="0" width="130" height="60" viewBox="0, 0, 1300, 600">
  <g id="Layer_1">
    <path d="M-0.815,0 L1300.815,0 L1300.815,660.937 L-0.815,660.937 L-0.815,0 z" fill="#FFFFFF"/>
    <path d="M465.545,333.27 C466.115,332.515 466.684,331.751 467.253,330.986 C485.159,306.802 521.756,305.401 543.138,326.986 C551.965,335.89 562.249,343.499 573.739,349.284 C612.159,368.812 663.074,365.93 697.482,340.613 C708.35,332.618 717.37,323.463 724.974,313.551 C736.171,299.267 744.822,283.454 752.898,267.242 C756.317,260.782 759.601,254.067 762.889,247.608 C763.573,246.293 764.124,244.98 764.95,243.654 C768.371,236.55 772.348,229.164 776.74,221.649 C784.163,208.985 790.373,199.744 797.56,190.48 C800.451,186.26 803.628,182.026 806.395,178.328 C808.054,176.215 809.856,174.091 811.516,171.978 C833.381,145.641 859.375,122.005 888.68,104.354 C946.745,69.438 1021.853,55.113 1086.779,77.175 C1141.94,96.099 1186.209,140.953 1202.159,193.886 C1217.827,246.832 1205.012,306.289 1169.025,349.56 C1132.904,393.097 1074.579,419.764 1015.611,420.271 C956.491,420.904 897.999,395.351 860.108,353.424 C862.268,351.456 864.419,349.488 866.569,347.52 C887.236,328.609 918.894,324.859 943.918,338.438 C973.475,354.465 1008.31,361.633 1041.711,355.135 C1080.036,347.834 1113.882,322.393 1129.6,288.81 C1145.318,255.626 1142.633,215.079 1122.347,183.799 C1102.334,152.505 1065.438,131.253 1026.268,128.486 C994.279,126.155 961.897,135.603 934.817,151.531 C888.883,178.567 855.01,221.545 830.295,265.853 C829.873,266.246 829.746,266.646 829.752,267.034 C828.642,268.486 828.101,269.809 827.277,271.258 C801.208,319.113 773.885,368.291 723.779,398.258 C668.221,431.306 592.919,431.892 536.044,401.208 C506.256,385.363 481.848,361.337 465.545,333.27" fill="#FF5F06"/>
    <path d="M794.266,164.624 C793.702,165.371 793.138,166.127 792.574,166.883 C774.832,190.809 739.264,191.685 718.808,169.796 C710.362,160.766 700.483,153.011 689.406,147.062 C652.37,126.985 602.873,129.138 569.086,153.958 C558.414,161.797 549.52,170.822 541.99,180.624 C530.908,194.746 522.276,210.433 514.197,226.527 C510.782,232.938 507.495,239.605 504.208,246.016 C503.525,247.321 502.971,248.626 502.149,249.941 C498.724,256.995 494.754,264.323 490.379,271.774 C482.986,284.33 476.82,293.482 469.706,302.641 C466.836,306.82 463.689,311.007 460.948,314.665 C459.306,316.754 457.525,318.853 455.882,320.942 C434.263,346.962 408.672,370.224 379.953,387.453 C323.047,421.533 249.885,434.78 187.14,411.79 C133.834,392.077 91.482,346.594 76.755,293.438 C62.302,240.273 75.61,181.006 111.19,138.256 C146.906,95.24 203.944,69.412 261.229,69.75 C318.663,69.965 375.109,96.353 411.307,138.818 C409.18,140.755 407.063,142.692 404.946,144.629 C384.598,163.242 353.793,166.538 329.683,152.603 C301.205,136.153 267.472,128.487 234.935,134.506 C197.603,141.256 164.36,166.21 148.607,199.564 C132.86,232.52 134.881,273.1 154.134,304.668 C173.12,336.245 208.651,358.023 246.658,361.352 C277.696,364.141 309.286,355.158 335.82,339.62 C380.828,313.245 414.352,270.756 438.999,226.808 C439.415,226.42 439.543,226.023 439.544,225.635 C440.642,224.198 441.187,222.884 442.008,221.446 C468.023,173.97 495.273,125.189 544.376,95.943 C598.819,63.695 671.97,64.188 726.771,95.684 C755.476,111.954 778.837,136.326 794.266,164.624" fill="#FF5F06"/>
    <text transform="matrix(1, 0, 0, 1, 650, 551.495)">
      <tspan x="-602.419" y="45.558" font-family="MicroExtendFLF" font-size="177" fill="#FF5F06">info@infino.ai</tspan>
    </text>
    <path d="M328.804,689.317 L925.276,689.317 C947.634,689.317 965.758,702.301 965.758,718.318 L965.758,839.626 C965.758,855.642 947.634,868.626 925.276,868.626 L328.804,868.626 C306.447,868.626 288.322,855.642 288.322,839.626 L288.322,718.318 C288.322,702.301 306.447,689.317 328.804,689.317 z" fill-opacity="0" stroke="#E47E2C" stroke-width="20.825" display="none"/>
    <path d="M831.094,293.085 C803.738,309.885 766.96,302.043 748.947,275.57 C730.935,249.098 738.509,214.018 765.865,197.218 C793.221,180.418 830,188.26 848.012,214.733 C866.025,241.205 858.45,276.285 831.094,293.085 z" fill="#FF5F06"/>
    <path d="M490.189,293.684 C462.522,309.971 425.898,301.446 408.386,274.643 C390.874,247.839 399.107,212.907 426.774,196.619 C454.441,180.332 491.066,188.857 508.578,215.66 C526.089,242.464 517.857,277.396 490.189,293.684 z" fill="#FF5F06"/>
  </g>
</svg>
