<?xml version="1.0" encoding="UTF-8"?>
<!DOCTYPE svg PUBLIC "-//W3C//DTD SVG 1.1//EN" "http://www.w3.org/Graphics/SVG/1.1/DTD/svg11.dtd">
<svg version="1.1" xmlns="http://www.w3.org/2000/svg" xmlns:xlink="http://www.w3.org/1999/xlink" x="0" y="0" width="1300" height="800" viewBox="0, 0, 1300, 800">
  <g id="Layer_1">
    <path d="M-0.815,-14.14 L1300.815,-14.14 L1300.815,814.14 L-0.815,814.14 L-0.815,-14.14 z" fill="#000000"/>
    <path d="M474.739,319.131 C475.309,318.376 475.878,317.611 476.447,316.847 C494.353,292.662 530.95,291.261 552.332,312.846 C561.159,321.751 571.443,329.359 582.934,335.144 C621.353,354.673 672.268,351.79 706.676,326.474 C717.544,318.478 726.564,309.324 734.169,299.411 C745.365,285.127 754.016,269.315 762.092,253.103 C765.512,246.642 768.796,239.928 772.083,233.469 C772.767,232.154 773.318,230.841 774.144,229.514 C777.565,222.41 781.542,215.024 785.934,207.51 C793.357,194.846 799.567,185.604 806.754,176.341 C809.645,172.12 812.822,167.887 815.589,164.189 C817.248,162.076 819.05,159.951 820.71,157.838 C842.575,131.501 868.569,107.865 897.874,90.214 C955.939,55.299 1031.047,40.973 1095.973,63.036 C1151.134,81.96 1195.403,126.813 1211.353,179.747 C1227.021,232.693 1214.206,292.15 1178.219,335.42 C1142.098,378.958 1083.773,405.624 1024.805,406.132 C965.685,406.764 907.193,381.212 869.302,339.285 C871.463,337.317 873.613,335.349 875.763,333.381 C896.43,314.47 928.089,310.719 953.112,324.298 C982.669,340.326 1017.504,347.494 1050.905,340.995 C1089.23,333.695 1123.076,308.253 1138.794,274.671 C1154.512,241.486 1151.828,200.94 1131.541,169.659 C1111.528,138.366 1074.632,117.114 1035.462,114.346 C1003.473,112.016 971.091,121.463 944.011,137.391 C898.077,164.427 864.204,207.406 839.489,251.713 C839.067,252.107 838.94,252.506 838.946,252.894 C837.837,254.347 837.296,255.669 836.471,257.118 C810.402,304.974 783.079,354.151 732.973,384.119 C677.415,417.166 602.113,417.752 545.238,387.068 C515.45,371.223 491.042,347.198 474.739,319.131" fill="#FF5F06"/>
    <path d="M804.054,150.429 C803.484,151.171 802.914,151.923 802.344,152.675 C784.418,176.463 748.844,177.064 728.557,155.018 C720.182,145.923 710.362,138.092 699.332,132.057 C662.452,111.695 612.939,113.466 578.962,138.025 C568.23,145.781 559.266,154.737 551.661,164.481 C540.47,178.517 531.718,194.136 523.515,210.168 C520.05,216.553 516.712,223.194 513.376,229.579 C512.683,230.879 512.118,232.18 511.287,233.488 C507.807,240.516 503.781,247.813 499.349,255.229 C491.858,267.728 485.622,276.832 478.437,285.936 C475.535,290.092 472.356,294.256 469.587,297.893 C467.929,299.969 466.132,302.053 464.473,304.13 C442.654,329.983 416.884,353.046 388.032,370.052 C330.865,403.692 257.603,416.375 195.037,392.9 C141.885,372.777 99.886,326.968 85.57,273.7 C71.527,220.425 85.292,161.263 121.201,118.788 C157.248,76.05 214.483,50.663 271.765,51.443 C329.195,52.101 385.435,78.924 421.304,121.668 C419.163,123.588 417.031,125.508 414.899,127.429 C394.408,145.884 363.578,148.943 339.577,134.821 C311.227,118.152 277.554,110.226 244.971,115.994 C207.588,122.456 174.153,147.152 158.144,180.383 C142.143,213.217 143.85,253.812 162.859,285.527 C181.601,317.25 216.963,339.301 254.943,342.923 C285.958,345.952 317.617,337.213 344.27,321.881 C389.481,295.853 423.331,253.625 448.317,209.868 C448.735,209.484 448.867,209.087 448.871,208.699 C449.98,207.271 450.535,205.961 451.367,204.53 C477.747,157.256 505.374,108.687 554.701,79.82 C609.391,47.994 682.536,49.051 737.093,80.969 C765.671,97.461 788.843,122.013 804.054,150.429" fill="#FF5F06"/>
    <text transform="matrix(1, 0, 0, 1, 656, 654.687)">
      <tspan x="-602" y="74.732" font-family="MicroExtendFLF" font-size="400" fill="#FF5F06">infino</tspan>
    </text>
    <path d="M328.804,689.317 L925.276,689.317 C947.634,689.317 965.758,702.301 965.758,718.318 L965.758,839.626 C965.758,855.642 947.634,868.626 925.276,868.626 L328.804,868.626 C306.447,868.626 288.322,855.642 288.322,839.626 L288.322,718.318 C288.322,702.301 306.447,689.317 328.804,689.317 z" fill-opacity="0" stroke="#E47E2C" stroke-width="20.825" display="none"/>
    <path d="M842.288,278.925 C814.932,295.725 778.154,287.883 760.141,261.411 C742.129,234.938 749.703,199.858 777.059,183.058 C804.415,166.258 841.194,174.1 859.206,200.573 C877.219,227.045 869.644,262.125 842.288,278.925 z" fill="#FF5F06"/>
    <path d="M499.384,279.544 C471.716,295.832 435.092,287.307 417.58,260.503 C400.069,233.699 408.301,198.767 435.968,182.48 C463.635,166.192 500.26,174.717 517.772,201.521 C535.283,228.325 527.051,263.257 499.384,279.544 z" fill="#FF5F06"/>
  </g>
</svg>
