<?xml version="1.0" encoding="UTF-8"?>
<!DOCTYPE svg PUBLIC "-//W3C//DTD SVG 1.1//EN" "http://www.w3.org/Graphics/SVG/1.1/DTD/svg11.dtd">
<svg version="1.1" xmlns="http://www.w3.org/2000/svg" xmlns:xlink="http://www.w3.org/1999/xlink" x="0" y="0" width="1300" height="800" viewBox="0, 0, 1300, 800">
  <g id="Layer_1">
    <path d="M-1.631,-14.14 L1300,-14.14 L1300,814.14 L-1.631,814.14 L-1.631,-14.14 z" fill="#FFFFFF"/>
    <path d="M465.545,319.131 C466.115,318.376 466.684,317.611 467.253,316.847 C485.159,292.662 521.756,291.261 543.138,312.846 C551.965,321.751 562.249,329.359 573.739,335.144 C612.159,354.673 663.074,351.79 697.482,326.474 C708.35,318.478 717.37,309.324 724.974,299.411 C736.171,285.127 744.822,269.315 752.898,253.103 C756.317,246.642 759.601,239.928 762.889,233.469 C763.573,232.154 764.124,230.841 764.95,229.514 C768.371,222.41 772.348,215.024 776.74,207.51 C784.163,194.846 790.373,185.604 797.56,176.341 C800.451,172.12 803.628,167.887 806.395,164.189 C808.054,162.076 809.856,159.951 811.516,157.838 C833.381,131.501 859.375,107.865 888.68,90.214 C946.745,55.299 1021.853,40.973 1086.779,63.036 C1141.94,81.96 1186.209,126.813 1202.159,179.747 C1217.827,232.693 1205.012,292.15 1169.025,335.42 C1132.904,378.958 1074.579,405.624 1015.611,406.132 C956.491,406.764 897.999,381.212 860.108,339.285 C862.268,337.317 864.419,335.349 866.569,333.381 C887.236,314.47 918.894,310.719 943.918,324.298 C973.475,340.326 1008.31,347.494 1041.711,340.995 C1080.036,333.695 1113.882,308.253 1129.6,274.671 C1145.318,241.486 1142.633,200.94 1122.347,169.659 C1102.334,138.366 1065.438,117.114 1026.268,114.346 C994.279,112.016 961.897,121.463 934.817,137.391 C888.883,164.427 855.01,207.406 830.295,251.713 C829.873,252.107 829.746,252.506 829.752,252.894 C828.642,254.347 828.101,255.669 827.277,257.118 C801.208,304.974 773.885,354.151 723.779,384.119 C668.221,417.166 592.919,417.752 536.044,387.068 C506.256,371.223 481.848,347.198 465.545,319.131" fill="#FF5F06"/>
    <path d="M794.266,150.485 C793.702,151.231 793.138,151.988 792.574,152.744 C774.832,176.669 739.264,177.546 718.808,155.657 C710.362,146.626 700.483,138.872 689.406,132.922 C652.37,112.845 602.873,114.998 569.086,139.819 C558.414,147.658 549.52,156.682 541.99,166.485 C530.908,180.606 522.276,196.293 514.197,212.388 C510.782,218.799 507.495,225.466 504.208,231.877 C503.525,233.182 502.971,234.487 502.149,235.801 C498.724,242.856 494.754,250.184 490.379,257.634 C482.986,270.191 476.82,279.342 469.706,288.502 C466.836,292.68 463.689,296.868 460.948,300.526 C459.306,302.615 457.525,304.713 455.882,306.802 C434.263,332.823 408.672,356.084 379.952,373.313 C323.047,407.393 249.885,420.641 187.14,397.65 C133.834,377.938 91.482,332.455 76.755,279.298 C62.302,226.133 75.61,166.866 111.19,124.116 C146.906,81.101 203.944,55.273 261.229,55.61 C318.663,55.825 375.109,82.213 411.307,124.679 C409.18,126.616 407.063,128.553 404.946,130.489 C384.598,149.102 353.793,152.399 329.683,138.463 C301.205,122.013 267.472,114.347 234.935,120.366 C197.603,127.117 164.36,152.07 148.607,185.424 C132.86,218.38 134.881,258.961 154.134,290.528 C173.12,322.105 208.651,343.884 246.658,347.212 C277.696,350.001 309.286,341.019 335.82,325.48 C380.828,299.105 414.352,256.617 438.999,212.668 C439.415,212.281 439.543,211.883 439.544,211.495 C440.642,210.059 441.187,208.744 442.008,207.307 C468.022,159.83 495.273,111.049 544.376,81.803 C598.819,49.556 671.97,50.048 726.771,81.544 C755.476,97.814 778.837,122.187 794.266,150.485" fill="#FF5F06"/>
    <text transform="matrix(1, 0, 0, 1, 653.873, 662.907)">
      <tspan x="-602" y="74.732" font-family="MicroExtendFLF" font-size="400" fill="#FF5F06">infino</tspan>
    </text>
    <path d="M328.804,689.317 L925.276,689.317 C947.634,689.317 965.758,702.301 965.758,718.318 L965.758,839.626 C965.758,855.642 947.634,868.626 925.276,868.626 L328.804,868.626 C306.447,868.626 288.322,855.642 288.322,839.626 L288.322,718.318 C288.322,702.301 306.447,689.317 328.804,689.317 z" fill-opacity="0" stroke="#E47E2C" stroke-width="20.825" display="none"/>
    <path d="M831.094,278.945 C803.738,295.745 766.96,287.904 748.947,261.431 C730.935,234.958 738.509,199.879 765.865,183.079 C793.221,166.279 830,174.12 848.012,200.593 C866.025,227.066 858.45,262.145 831.094,278.945 z" fill="#FF5F06"/>
    <path d="M490.189,279.544 C462.522,295.832 425.898,287.307 408.386,260.503 C390.874,233.699 399.107,198.767 426.774,182.48 C454.441,166.192 491.066,174.717 508.578,201.521 C526.089,228.325 517.857,263.257 490.189,279.544 z" fill="#FF5F06"/>
  </g>
</svg>
